<svg viewBox="0 0 200 200" xmlns="http://www.w3.org/2000/svg">
  <path fill="#FF0066" d="M35.2,-62.2C47.3,-53.8,60.2,-48,66.2,-38.1C72.2,-28.2,71.3,-14.1,73.5,1.3C75.7,16.6,81,33.2,76.3,45.4C71.6,57.7,57,65.5,42.6,72.1C28.2,78.7,14.1,84.2,0.5,83.4C-13.2,82.5,-26.4,75.5,-39.5,68.2C-52.6,60.8,-65.7,53.1,-75.5,41.7C-85.4,30.3,-92.1,15.2,-91.1,0.6C-90.1,-14,-81.5,-28,-70.9,-38.2C-60.3,-48.4,-47.8,-54.7,-35.6,-63.1C-23.5,-71.4,-11.7,-81.8,-0.1,-81.6C11.5,-81.3,23,-70.5,35.2,-62.2Z" transform="translate(100 100)" />
</svg>