<?xml version="1.0" encoding="utf-8"?>
<!-- Uploaded to: SVG Repo, www.svgrepo.com, Generator: SVG Repo Mixer Tools -->
<svg width="800px" height="800px" viewBox="0 0 1024 1024" fill="#ffffff" class="icon"  version="1.1" xmlns="http://www.w3.org/2000/svg"><path d="M975.694 732.148a8.01 8.01 0 0 1-7.872-6.606l-55.552-314.98a7.992 7.992 0 0 1 6.482-9.262c4.31-0.906 8.496 2.14 9.26 6.482l55.554 314.98a7.968 7.968 0 0 1-6.482 9.26 6.912 6.912 0 0 1-1.39 0.126zM984.004 779.408a7.98 7.98 0 0 1-7.858-6.606c-7.2-40.826-163.534-48.322-260.396-43.48-4.436 0.454-8.152-3.17-8.372-7.574a7.988 7.988 0 0 1 7.59-8.386c27.036-1.39 264.942-11.322 276.922 56.662a7.994 7.994 0 0 1-7.886 9.384z" fill="" /><path d="M676.458 508.846a7.98 7.98 0 0 1-7.858-6.608 7.992 7.992 0 0 1 6.482-9.26c67.906-11.996 241.388-58.646 228.864-129.676a7.97 7.97 0 0 1 6.482-9.262c4.326-0.922 8.512 2.14 9.26 6.482 7.686 43.526-31.516 81.804-116.476 113.776-60.91 22.928-124.724 34.312-125.35 34.422a7.106 7.106 0 0 1-1.404 0.126z" fill="" /><path d="M911.816 369.908a8.01 8.01 0 0 1-7.872-6.606 7.97 7.97 0 0 1 6.482-9.262l31.484-5.544c4.326-0.874 8.496 2.14 9.262 6.482a7.97 7.97 0 0 1-6.48 9.262l-31.486 5.542a7.048 7.048 0 0 1-1.39 0.126z" fill="" /><path d="M1015.52 773.85a8.01 8.01 0 0 1-7.872-6.608l-72.216-409.484a7.97 7.97 0 0 1 6.48-9.262c4.326-0.874 8.496 2.14 9.262 6.482l72.216 409.484a7.97 7.97 0 0 1-6.48 9.262 7.06 7.06 0 0 1-1.39 0.126z" fill="" /><path d="M984.004 779.408a7.98 7.98 0 0 1-7.858-6.606 8.002 8.002 0 0 1 6.482-9.262l31.5-5.56c4.358-0.876 8.496 2.14 9.262 6.482a7.978 7.978 0 0 1-6.48 9.262l-31.502 5.56a7.256 7.256 0 0 1-1.404 0.124zM557.854 757.106a7.98 7.98 0 0 1-7.856-6.606l-38.888-220.492a7.976 7.976 0 0 1 6.482-9.262l157.49-27.768c4.294-0.86 8.496 2.138 9.262 6.48a7.992 7.992 0 0 1-6.482 9.262l-149.62 26.376 36.11 204.752 149.62-26.378c4.358-0.89 8.496 2.138 9.26 6.48a7.992 7.992 0 0 1-6.48 9.262L559.26 756.98a7.112 7.112 0 0 1-1.406 0.126z" fill="" /><path d="M557.87 757.106c-0.544 0-1.092-0.062-1.638-0.17l-84.298-17.618a7.992 7.992 0 0 1-6.24-6.436l-27.784-157.49a8 8 0 0 1 3.654-8.184l73.202-45.384a7.998 7.998 0 0 1 12.086 5.402l38.89 220.494a8.032 8.032 0 0 1-2.296 7.136 8.08 8.08 0 0 1-5.576 2.25z m-77.37-32.328l67.454 14.088-34.796-197.222-58.56 36.294 25.902 146.84zM709.786 697.852a7.976 7.976 0 0 1-7.856-6.606L674.16 533.74a7.992 7.992 0 0 1 6.48-9.262c4.312-0.86 8.496 2.138 9.262 6.482l27.77 157.506a7.99 7.99 0 0 1-6.482 9.26 7.092 7.092 0 0 1-1.404 0.126z" fill="" /><path d="M482.834 607.958a7.996 7.996 0 0 1-7.864-6.608 7.98 7.98 0 0 1 6.48-9.262l15.758-2.78c4.358-0.89 8.496 2.14 9.26 6.48a7.98 7.98 0 0 1-6.48 9.262l-15.758 2.782a7.052 7.052 0 0 1-1.396 0.126zM499.498 702.446a7.996 7.996 0 0 1-7.864-6.608 7.988 7.988 0 0 1 6.48-9.262l15.744-2.78c4.356-0.906 8.498 2.138 9.262 6.48a7.99 7.99 0 0 1-6.482 9.262l-15.742 2.782a7.086 7.086 0 0 1-1.398 0.126zM491.158 655.184a8.008 8.008 0 0 1-7.872-6.622 7.996 7.996 0 0 1 6.496-9.246l15.758-2.764c4.35-0.86 8.49 2.138 9.26 6.496a7.996 7.996 0 0 1-6.496 9.246l-15.758 2.764a6.96 6.96 0 0 1-1.388 0.126zM533.334 525.962a8.002 8.002 0 0 1-7.872-6.608 7.984 7.984 0 0 1 6.48-9.26l31.502-5.56c4.294-0.89 8.496 2.138 9.262 6.48a8 8 0 0 1-6.482 9.262l-31.5 5.56a6.9 6.9 0 0 1-1.39 0.126zM772.756 962.808a8.006 8.006 0 0 1-7.154-4.402l-74.996-149.168a7.966 7.966 0 0 1 3.544-10.728 7.954 7.954 0 0 1 10.73 3.544l75.028 149.166a8.01 8.01 0 0 1-3.56 10.728 7.79 7.79 0 0 1-3.592 0.86zM694.012 976.694a8 8 0 0 1-7.154-4.404l-74.996-149.166a7.964 7.964 0 0 1 3.544-10.728c3.966-2.032 8.762-0.39 10.728 3.544l75.03 149.166a8.01 8.01 0 0 1-3.562 10.728 7.78 7.78 0 0 1-3.59 0.86z" fill="" /><path d="M678.268 979.472a8.01 8.01 0 0 1-7.872-6.606 7.97 7.97 0 0 1 6.482-9.262l110.246-19.444c4.324-0.86 8.496 2.138 9.262 6.48a7.994 7.994 0 0 1-6.482 9.262l-110.246 19.444a6.912 6.912 0 0 1-1.39 0.126zM581.938 801.586a8.006 8.006 0 0 1-7.872-6.606l-3.124-17.726a7.97 7.97 0 0 1 6.482-9.262c4.358-0.906 8.496 2.14 9.26 6.48l3.124 17.726a7.97 7.97 0 0 1-6.482 9.262 7.028 7.028 0 0 1-1.388 0.126z" fill="" /><path d="M581.938 801.586a7.984 7.984 0 0 1-7.872-6.636 8.006 8.006 0 0 1 6.512-9.246L722.42 761.2c4.326-0.766 8.48 2.17 9.228 6.528a8.006 8.006 0 0 1-6.512 9.246l-141.842 24.504a8.26 8.26 0 0 1-1.356 0.108z" fill="" /><path d="M723.778 777.082a8.012 8.012 0 0 1-7.872-6.606l-2.78-15.76a7.97 7.97 0 0 1 6.482-9.262c4.292-0.874 8.496 2.14 9.26 6.482l2.78 15.758a7.97 7.97 0 0 1-6.48 9.262 7.06 7.06 0 0 1-1.39 0.126zM40.692 76.512c-4.412 0-8.074-3.576-8.074-7.996s3.498-7.996 7.918-7.996h0.156c4.42 0 7.996 3.576 7.996 7.996s-3.576 7.996-7.996 7.996zM72.678 76.512c-4.412 0-8.074-3.576-8.074-7.996s3.498-7.996 7.918-7.996h0.156c4.42 0 7.996 3.576 7.996 7.996s-3.576 7.996-7.996 7.996zM104.664 76.512c-4.412 0-8.074-3.576-8.074-7.996s3.498-7.996 7.918-7.996h0.156c4.42 0 7.996 3.576 7.996 7.996s-3.576 7.996-7.996 7.996z" fill="" /><path d="M1015.77 92.504H8.23a7.99 7.99 0 0 1-7.996-7.996v-15.992c0-13.228 10.76-23.988 23.988-23.988h975.554c13.226 0 23.988 10.76 23.988 23.988v15.992a7.988 7.988 0 0 1-7.994 7.996zM16.226 76.512h991.546v-7.996a8.012 8.012 0 0 0-7.996-7.996H24.222a8.006 8.006 0 0 0-7.996 7.996v7.996z" fill="" /><path d="M1015.77 476.314a7.992 7.992 0 0 1-7.996-7.998V84.508c0-4.42 3.576-7.996 7.996-7.996s7.996 3.576 7.996 7.996v383.808a7.992 7.992 0 0 1-7.996 7.998zM8.23 732.196A7.99 7.99 0 0 1 0.234 724.2V84.508c0-4.42 3.576-7.996 7.996-7.996s7.996 3.576 7.996 7.996V724.2a7.99 7.99 0 0 1-7.996 7.996z" fill="" /><path d="M424.042 732.196H8.23c-4.42 0-7.996-3.576-7.996-7.996s3.576-7.996 7.996-7.996H424.04c4.418 0 7.996 3.576 7.996 7.996s-3.576 7.996-7.994 7.996zM296.108 508.298a8 8 0 0 1-6.866-3.888l-41.122-68.532-41.12 68.532a7.97 7.97 0 0 1-10.972 2.748 7.982 7.982 0 0 1-2.74-10.962l47.978-79.962c2.89-4.842 10.824-4.842 13.712 0l47.978 79.962a7.986 7.986 0 0 1-2.74 10.962 7.892 7.892 0 0 1-4.108 1.14z" fill="" /><path d="M152.156 508.298a7.992 7.992 0 0 1-6.644-12.432l31.986-47.978a8.02 8.02 0 0 1 6.654-3.56c2.678 0 5.17 1.344 6.652 3.56l10.644 15.976a8 8 0 0 1-2.218 11.09c-3.694 2.42-8.652 1.438-11.088-2.218l-3.99-5.996-25.332 37.998a7.992 7.992 0 0 1-6.664 3.56z" fill="" /><path d="M951.798 300.394H72.202a7.99 7.99 0 0 1-7.996-7.996v-143.92a7.99 7.99 0 0 1 7.996-7.996H951.8a7.99 7.99 0 0 1 7.996 7.996v143.92a7.994 7.994 0 0 1-7.998 7.996z m-871.6-15.994h863.606V156.474H80.198V284.4z" fill="" /><path d="M328.084 524.292H72.202a7.99 7.99 0 0 1-7.996-7.996v-159.926a7.99 7.99 0 0 1 7.996-7.996h255.882a7.99 7.99 0 0 1 7.996 7.996v159.926a7.992 7.992 0 0 1-7.996 7.996z m-247.886-15.994h239.89v-143.934H80.198v143.934z" fill="" /><path d="M119.296 428.336c-13.228 0-23.988-10.762-23.988-23.99s10.76-23.988 23.988-23.988 23.99 10.76 23.99 23.988-10.76 23.99-23.99 23.99z m0-31.986c-4.412 0-7.996 3.592-7.996 7.996s3.584 7.998 7.996 7.998 7.996-3.594 7.996-7.998-3.584-7.996-7.996-7.996z" fill="" /><path d="M863.84 220.43H160.162c-4.42 0-7.998-3.576-7.998-7.996s3.578-7.996 7.998-7.996H863.84c4.418 0 7.996 3.576 7.996 7.996s-3.578 7.996-7.996 7.996z" fill="" /><path d="M767.882 252.416H256.118c-4.42 0-7.996-3.576-7.996-7.996s3.576-7.996 7.996-7.996h511.766c4.42 0 7.996 3.576 7.996 7.996s-3.578 7.996-7.998 7.996z" fill="" /><path d="M328.084 572.27H72.202c-4.42 0-7.996-3.576-7.996-7.996s3.576-7.996 7.996-7.996h255.882c4.42 0 7.996 3.576 7.996 7.996s-3.576 7.996-7.996 7.996z" fill="" /><path d="M328.084 620.248H72.202a7.992 7.992 0 0 1-7.996-7.998 7.992 7.992 0 0 1 7.996-7.996h255.882a7.992 7.992 0 0 1 7.996 7.996 7.992 7.992 0 0 1-7.996 7.998z" fill="" /><path d="M200.142 668.226h-127.94c-4.42 0-7.996-3.578-7.996-7.998s3.576-7.996 7.996-7.996h127.942c4.42 0 7.996 3.576 7.996 7.996s-3.578 7.998-7.998 7.998z" fill="" /><path d="M535.988 481.638a7.99 7.99 0 0 1-6.856-12.102l31.984-53.302c2.89-4.842 10.824-4.842 13.712 0l19.242 32.062a8 8 0 0 1-2.732 10.964 8 8 0 0 1-10.98-2.75l-12.384-20.63-25.128 41.872a7.982 7.982 0 0 1-6.858 3.886z" fill="" /><path d="M472.01 508.298a7.992 7.992 0 0 1-6.646-12.432l31.986-47.978a8.02 8.02 0 0 1 6.654-3.56c2.678 0 5.17 1.344 6.652 3.56l10.644 15.976a8 8 0 0 1-2.218 11.09c-3.694 2.42-8.652 1.438-11.088-2.218l-3.99-5.996-25.332 37.998a7.988 7.988 0 0 1-6.662 3.56z" fill="" /><path d="M440.034 524.292h-47.978a7.99 7.99 0 0 1-7.996-7.996v-159.926a7.99 7.99 0 0 1 7.996-7.996h255.882a7.99 7.99 0 0 1 7.996 7.996v95.94c0 4.42-3.576 7.996-7.996 7.996s-7.996-3.576-7.996-7.996v-87.944H400.05v143.934h39.982c4.42 0 7.996 3.576 7.996 7.996s-3.574 7.996-7.994 7.996z" fill="" /><path d="M439.15 428.336c-13.228 0-23.988-10.762-23.988-23.99s10.76-23.988 23.988-23.988 23.99 10.76 23.99 23.988-10.762 23.99-23.99 23.99z m0-31.986c-4.412 0-7.996 3.592-7.996 7.996s3.584 7.998 7.996 7.998 7.996-3.594 7.996-7.998-3.584-7.996-7.996-7.996z" fill="" /><path d="M408.048 572.27h-15.994c-4.42 0-7.996-3.576-7.996-7.996s3.576-7.996 7.996-7.996h15.994c4.418 0 7.996 3.576 7.996 7.996s-3.578 7.996-7.996 7.996z" fill="" /><path d="M408.048 620.248h-15.994a7.992 7.992 0 0 1-7.996-7.998 7.992 7.992 0 0 1 7.996-7.996h15.994a7.994 7.994 0 0 1 7.996 7.996 7.992 7.992 0 0 1-7.996 7.998z" fill="" /><path d="M424.042 668.226h-31.986c-4.42 0-7.996-3.578-7.996-7.998s3.576-7.996 7.996-7.996h31.986c4.418 0 7.996 3.576 7.996 7.996s-3.578 7.998-7.996 7.998z" fill="" /><path d="M711.908 460.304a7.99 7.99 0 0 1-7.996-7.996v-95.94a7.99 7.99 0 0 1 7.996-7.996h159.928c4.42 0 7.996 3.576 7.996 7.996s-3.576 7.996-7.996 7.996h-151.932v87.944a7.99 7.99 0 0 1-7.996 7.996z" fill="" /><path d="M759.012 428.336c-13.228 0-23.988-10.762-23.988-23.99s10.76-23.988 23.988-23.988 23.988 10.76 23.988 23.988-10.76 23.99-23.988 23.99z m0-31.986c-4.404 0-7.996 3.592-7.996 7.996s3.592 7.998 7.996 7.998 7.996-3.594 7.996-7.998-3.592-7.996-7.996-7.996z" fill="" /></svg>